Patient4_TMGait_0pt7_02_left_41_EMG.mot
version=1
nRows=41
nColumns=33
inDegrees=no
endheader
time	1LAddLong	2LGlutMax	3LGlutMed	4LIliopsoas	5LSemiMemb	6LBicFemLong	7LRecFem	8LVastMed	9LVastLat	10LGasMed	11LTibAnt	12lTibPost	13LPeroneusLong	14LSol	15LExtDigLong	16LFlexDigLong	17RAddLong	18RGlutMax	19RGlutMed	20RIliopsoas	21RSemiMemb	22RBicFemLong	23RRecFem	24RVastMed	25RVastLat	26RGasMed	27RTibAnt	28RTibPost	29RPeroneusLong	30RSol	31RExtDigLong	32RFlexDigLong
47.372	0.026245	1.1	-0.55252	0.003357	0.1178	-0.16724	0.19592	0.012817	-0.23712	0.35263	-0.00946	0.098572	0.007477	-0.36697	-0.005341	0.32974	0.005035	-0.80353	0.065613	0.17471	-0.18387	0.020294	0.8902	-0.28091	-0.046234	-0.007324	-0.16769	0.034943	-0.021515	0.12329	-0.006714	-0.018616
47.373	0.041351	1.1298	-0.61508	0.005951	0.062714	-0.097198	0.21545	0.011139	-0.25818	0.92239	-0.003662	0.24002	0.083618	-0.16144	-0.071869	0.10696	-0.040436	-0.82275	0.030518	0.18692	-0.15839	-0.073547	0.94208	-0.22781	-0.046234	-0.004578	-0.049591	0.042419	0.018158	0.12848	-0.001984	-0.011292
47.374	0.042114	1.0538	-0.44128	0.009003	0.068817	0.046997	0.18463	0.007629	-0.1947	0.70801	-0.000916	0.033112	0.072784	-0.17303	-0.084534	0.22156	-0.052185	-0.77591	-0.12589	0.14008	-0.1329	0.026703	0.96039	-0.22461	-0.035706	-0.004578	0.56061	0.048828	-0.10269	0.112	-0.003662	-0.019989
47.375	0.019836	1.0085	0.24796	0.023651	0.015259	0.14603	0.15457	0.003662	-0.13336	0.39108	0.007629	-0.031586	0.063782	-0.19791	-0.063019	-0.21118	-0.061798	-0.79147	0.012207	-0.11948	-0.002289	0.10605	0.9407	-0.19287	-0.017395	-0.007172	0.88898	0.055237	-0.24216	0.099335	-0.003357	-0.019836
47.376	0.01236	0.8252	0.1178	0.05188	-0.0177	0.11688	0.13672	0.001373	-0.11917	0.26001	0.013275	0.063171	0.082245	-0.18601	-0.039978	-0.27069	0.003662	-0.79315	-0.12924	-0.28671	0.11627	0.14694	0.95688	-0.098572	-0.008392	-0.010223	0.82779	0.059052	-0.1152	-0.00824	-0.003204	-0.016327
47.377	0.010223	0.78278	0.21454	0.027771	-0.062408	0.2066	0.1178	-0.010681	-0.10162	-0.60165	0.023651	0.056	0.031128	-0.2211	-0.044098	0.000305	0.02121	-0.79849	-0.41153	-0.31555	0.18036	0.14511	0.90881	-0.002747	0.010529	0.002594	0.25742	0.072327	0.039978	-0.071869	-0.00351	-0.019989
47.378	-0.005188	0.73685	0.3154	0.011139	-0.10346	0.26962	0.065765	-0.009155	-0.11902	-1.2932	0.029755	0.061035	-0.027771	-0.34973	-0.036316	0.003662	0.027313	-0.71655	-0.36468	-0.20538	0.16892	0.080414	0.99594	-0.082092	-0.014496	0.006256	-0.47623	0.070038	0.22995	0.007782	-0.00351	-0.016327
47.379	-0.014343	0.67963	0.1004	0.014496	-0.14587	0.06424	0.000305	0.005035	-0.1265	-0.82916	0.030823	0.18387	-0.042267	-0.062256	-0.026245	-0.12177	0.05661	-0.71365	-0.30151	-0.021057	0.078888	0.042572	1.0245	-0.10742	-0.04303	0.008545	-0.8876	0.067139	0.34317	0.027771	-0.002441	-0.024261
47.38	0.014954	0.56885	0.005341	0.015869	-0.12344	-0.1355	-0.056915	0.001526	-0.1088	-0.39566	0.015411	0.014801	-0.027008	0.27313	-0.026855	-0.12909	0.13001	-0.78156	-0.071259	0.12726	0.053864	0.036926	0.96222	0.056763	-0.036469	0.00351	-1.0571	0.061646	0.29373	0.001221	-0.001068	-0.027618
47.381	0.045471	0.46493	-0.11047	0.016785	-0.063782	-0.33066	-0.099487	-0.005951	-0.06424	-0.23575	0.012512	0.03418	0.014191	0.17548	0.00885	-0.112	0.12955	-0.80078	-0.10788	0.24841	0.019073	0.062866	0.93506	0.096588	-0.022583	0.006104	-0.38864	0.061951	0.22034	-0.017548	-0.005341	-0.016632
47.382	0.046387	0.39703	-0.1059	0.011292	-0.047913	-0.047302	-0.12451	-0.011292	-0.042419	-0.15549	0.010529	0.050964	0.055389	0.16052	0.013733	-0.063477	0.10269	-0.7193	0.10056	0.21988	0.007019	0.077057	0.93597	0.090485	-0.014801	0.000305	-0.4071	0.063477	0.08728	-0.056915	-0.006409	-0.019684
47.383	0.044708	0.4306	-0.26321	-0.000153	-0.041962	0.44907	-0.14908	-0.019684	-0.046234	0.019836	0.008392	-0.023193	0.062408	0.27359	0.013885	-0.056458	0.11887	-0.67535	-0.11002	0.21332	0.02121	0.10101	0.88211	0.14908	0.012207	0.012207	-0.16693	0.059967	0.053253	-0.1059	-0.00946	-0.019531
47.384	0.063324	0.5014	-0.27206	0.007477	0.048981	0.62973	-0.14328	-0.001373	-0.045624	-0.11536	0.0177	-0.097961	0.021667	0.20767	-0.006409	-0.040741	0.098419	-0.64117	-0.24582	0.17273	0.01709	0.10361	0.85663	0.076904	-0.001068	0.006256	0.5336	0.053253	0.15121	-0.099792	-0.003967	-0.019073
47.385	0.063629	0.62225	-0.11917	0.002441	0.1001	0.83557	-0.19943	0.001526	-0.032654	-0.24292	0.036469	-0.1384	-0.096588	-0.063934	-0.031891	-0.019836	0.052643	-0.65094	-0.38193	0.12314	0.002441	0.004272	0.77499	0.12283	0.030518	-0.011902	0.93307	0.054321	-0.054626	0.020447	-0.002289	-0.019684
47.386	0.049896	0.78735	-0.085144	-0.021667	0.03952	0.9111	-0.28976	-0.076752	-0.080872	-0.271	0.043945	-0.065155	-0.10269	0.027771	-0.020294	-0.002899	0.03479	-0.62546	-0.74539	0.12283	-0.035095	-0.001068	0.7309	0.16922	0.018921	-0.015869	1.1816	0.061951	-0.21362	0.1413	-0.007172	-0.014496
47.387	0.037079	0.87921	0.080261	-0.00824	-0.05188	1.0071	-0.31265	-0.001373	-0.17425	-0.27344	0.072937	-0.029907	0.058441	-0.057373	0.00473	0.004272	0.002899	-0.57617	-0.811	-0.00061	-0.043182	-0.015564	0.61798	0.24338	0.022888	-0.009003	0.47058	0.052643	-0.11078	0.14175	-0.004883	-0.003357
47.388	0.023804	0.9462	-0.023651	0.008698	-0.13977	0.99594	-0.345	-0.001831	-0.15793	-0.23575	0.073242	-0.00885	0.16708	-0.084686	0.007019	-0.006714	0.001678	-0.61722	-0.73242	-0.084076	-0.018311	-0.048981	0.60867	0.2739	0.045319	0.003662	0.44739	0.061035	-0.054016	0.040436	0.000305	-0.018005
47.389	0.025177	1.0464	-0.00473	0.014496	-0.13123	0.3038	-0.39902	0.006409	-0.02121	-0.045929	-0.046692	-0.039215	0.17242	0.06134	-0.008545	-0.006256	0.009308	-0.52002	-0.61111	-0.10117	0.029297	-0.011902	0.60272	0.29724	0.042572	0.003815	0.44357	0.068207	-0.035858	0.011597	-0.000916	-0.007477
47.39	0.026398	1.1143	-0.020905	0.000153	-0.036926	-0.67627	-0.42038	0.017395	0.086212	0.16724	-0.098572	-0.054016	0.055847	0.11185	-0.005798	-0.011902	0.041351	-0.52017	-0.53085	-0.088959	0.030365	0.0354	0.59845	0.28564	0.042267	0.006409	-0.4718	0.072327	0.030365	-0.051727	0.007324	-0.016174
47.391	0.031281	1.1409	0.048981	0.003815	0.08606	-0.82062	-0.35263	0.03006	0.19928	0.14786	-0.040894	-0.044861	0.077515	0.112	0.001526	-0.028381	0.064392	-0.4985	-0.49469	-0.15533	-0.037842	0.098572	0.55939	0.2739	0.048828	0.007172	-1.2955	0.075378	0.10452	-0.17334	0.002747	-0.014343
47.392	0.013733	1.1957	0.012512	0.00412	0.015564	-0.78476	-0.35706	0.035095	0.28183	0.006714	-0.007782	-0.038757	0.10956	0.1149	-0.036316	-0.048065	0.048676	-0.42404	-0.34927	-0.2269	-0.034943	0.10529	0.51651	0.22629	0.054932	0.001526	-0.81207	0.088501	-0.014038	-0.076294	-0.003967	-0.013428
47.393	0.007629	1.0725	-0.12375	0.008698	0.001678	-0.73914	-0.43228	0.021515	0.13062	-0.061188	-0.000763	-0.03952	0.086365	0.068665	-0.067291	-0.0383	0.025482	-0.42389	-0.17822	-0.20325	0.014648	0.080566	0.51285	0.224	0.041046	0.002441	-0.11856	0.097198	-0.07309	-0.015259	-0.001221	-0.02121
47.394	0.006104	1.035	-0.2243	0.003662	0.023041	-0.74753	-0.51209	0.00351	-0.00061	-0.013733	0.003815	-0.037537	0.21606	0.032043	-0.002594	-0.015564	0.014648	-0.48538	-0.26154	-0.1239	0.026855	0.063629	0.5069	0.18097	0.048523	-0.001373	0.14557	0.11017	-0.055084	0.042267	-0.00473	-0.022888
47.395	0.00351	0.99335	-0.31952	-0.007629	-0.057068	-0.70145	-0.4657	-0.032959	-0.16205	0.30746	0.026398	-0.041656	0.22842	0.054169	0.06424	-0.015106	-0.032654	-0.52399	-0.92224	0.024414	0.016327	0.084229	0.48904	0.099182	0.017853	-0.00061	0.073547	0.1149	-0.08606	0.12802	-0.003967	-0.027466
47.396	-0.004883	1.0413	-0.31082	-0.008698	-0.13534	-0.44174	-0.39429	-0.028992	-0.25726	0.64331	0.015259	-0.045166	0.11398	0.065002	0.066833	-0.016174	-0.053101	-0.58579	-0.89829	0.039673	0.018158	0.019073	0.46402	0.06073	0.007782	-0.007782	-0.050659	0.11993	-0.11734	0.24994	0	-0.028839
47.397	-0.004578	1.1626	-0.25559	0.005341	-0.15289	-0.19241	-0.32303	-0.015411	-0.30533	0.93643	0.002594	-0.072174	-0.075836	0.070343	0.014801	-0.014954	0.019226	-0.64819	-0.75851	0.034332	0.00885	-0.013428	0.42908	0.003052	0.008545	-0.007172	0.003815	0.12909	-0.084076	0.22629	0.000305	-0.022278
47.398	0.02243	1.2541	-0.21301	0.048523	-0.10712	-0.084076	-0.34347	-0.018005	-0.16937	1.5054	-0.007019	-0.20767	-0.15198	0.001068	0.017853	-0.01297	0.075684	-0.64133	-0.72083	0.034943	-0.031891	-0.058136	0.50156	-0.095825	-0.01297	0.002899	0.026398	0.1326	0.065613	0.12543	0	-0.024719
47.399	0.03418	1.2547	-0.052948	0.045776	0.043335	-0.10635	-0.34027	-0.013885	-0.097961	1.06	-0.010376	0.30746	0.029449	-0.12711	0.006714	-0.010681	0.13794	-0.63812	-0.54855	-0.042725	-0.12436	-0.043182	0.52628	-0.21973	-0.017242	0.00351	-0.14221	0.13641	0.1648	0.04837	-0.001221	-0.017548
47.4	0.019989	1.257	0.021362	0.016174	0.10132	-0.33524	-0.31067	-0.015869	-0.020142	-0.6221	-0.011902	-0.045624	0.017395	-0.34149	-0.010223	-0.014954	0.15732	-0.63812	-0.42511	0.019684	-0.1918	-0.009308	0.56107	-0.29862	-0.033722	0.000305	0.024872	0.14542	0.080719	0.035095	0.000763	-0.025177
47.401	0.011292	1.2517	0.003357	-0.007172	0.030518	-0.032196	-0.29892	-0.006866	0.077515	-1.1882	-0.007782	-0.003357	0.15564	-0.40466	0.005646	-0.018005	0.13779	-0.63446	-0.47119	0.14358	-0.19959	0.026093	0.495	-0.33417	-0.020294	0.001068	0.37994	0.15228	-0.085144	0.0737	0.002136	-0.024261
47.402	0.007172	1.0927	-0.068207	-0.002289	-0.000916	0.26154	-0.26001	0.001068	0.027924	-0.095978	-0.006866	-0.005341	0.29312	-0.25009	-0.00946	-0.012207	0.10239	-0.6633	-0.8783	0.13123	-0.17075	0.065155	0.46249	-0.34637	-0.026245	-0.001221	0.35507	0.15381	-0.08316	0.046539	-0.002594	-0.02243
47.403	0.001678	0.99365	-0.10819	0.00412	-0.057983	0.43716	-0.26016	0.00946	-0.081177	0.33676	-0.011139	0.007477	0.040131	-0.044403	-0.00885	-0.009613	0.027924	-0.69	-0.95093	0.12665	-0.1622	0.062561	0.44266	-0.39856	-0.023346	-0.001678	0.17532	0.14557	-0.014343	0.003357	-0.000916	-0.025482
47.404	0.052338	0.85724	-0.23544	-0.003662	-0.058136	0.37338	-0.3125	0.007324	-0.14587	0.43289	-0.007324	0.009003	-0.54245	-0.14847	-0.021057	-0.010834	-0.088501	-0.68939	-1.073	0.12528	-0.17746	0.052338	0.46738	-0.36468	-0.01358	-0.006256	0.12634	0.1503	-0.00061	-0.054932	-0.00412	-0.016632
47.405	-0.027618	0.62134	-0.15427	-0.000305	-0.082703	0.30685	-0.37064	-0.002441	-0.15701	-0.38315	-0.010376	-0.023193	-0.2771	0.037842	-0.047913	-0.003357	-0.18845	-0.6572	-1.1267	0.11017	-0.18524	0.072327	0.4686	-0.35934	-0.020294	0.000153	0.15335	0.15045	0.025024	-0.046844	-0.00351	-0.02243
47.406	0.007172	0.33798	0.17899	0.009308	-0.10162	0.099945	-0.39993	0.004578	-0.003815	-0.87997	-0.019073	-0.042572	-0.076752	0.24689	-0.016785	0.001068	-0.18677	-0.63477	-0.9697	0.070496	-0.18051	0.11169	0.51361	-0.24445	-0.042114	-0.003052	-0.005798	0.14984	-0.002441	-0.007172	-0.006256	-0.014648
47.407	-0.035858	0.1387	-0.019073	-0.001678	-0.13367	-0.064545	-0.30472	0.006866	0.080872	-0.60532	-0.007477	-0.039825	0.60745	0.21408	0.062561	0.03006	-0.14862	-0.63278	-1.0916	0.15411	-0.16327	0.17777	0.50629	-0.22186	-0.03418	-0.000305	0.070038	0.15182	-0.059357	-0.040283	-0.003357	-0.016174
47.408	-0.019836	0.12878	-0.13748	0.000305	-0.089722	-0.63049	-0.16571	-0.010071	0.10773	-0.36514	0.012207	-0.037384	-0.097198	0.13336	0.10254	0.034943	-0.099335	-0.6485	-1.1824	0.14435	-0.11215	0.22659	0.55527	-0.13794	-0.032043	-0.001373	0.23621	0.15335	-0.055542	-0.080414	-0.003052	-0.019684
47.409	-0.02243	0.20462	-0.071259	-0.007629	-0.03418	-0.38513	-0.15152	-0.020447	0.10086	-0.27664	-0.003204	-0.032349	-0.64133	0.15823	0.1889	0.019073	-0.085907	-0.67215	-1.2563	0.10559	-0.10132	0.16113	0.52033	-0.060577	-0.022888	0	0.38803	0.15106	-0.066376	-0.010376	-0.003052	-0.010681
47.41	-0.038757	0.26504	0.031586	-0.002289	-0.080261	-0.075531	-0.11765	-0.012512	0.004578	-0.23895	0.024719	-0.034332	-0.63644	0.062866	0.12207	0.009613	-0.086365	-0.53513	-1.1743	0.061646	-0.10559	0.15503	0.53101	0.026093	-0.016785	-0.005188	0.31235	0.15427	-0.058136	0.015717	-0.001068	-0.022888
47.411	-0.050049	0.28519	0.032043	0.016479	-0.11368	0.17502	-0.15091	-0.003204	0.032349	-0.14862	0.070648	-0.033112	0.47592	-0.12436	-0.018158	-0.006866	-0.080719	-0.51239	-1.1345	0.06012	-0.10391	0.15579	0.49667	0.083923	-0.010071	-0.00351	0.22003	0.14542	0.021515	-0.048523	0.002747	-0.017395
47.412	-0.041199	0.35599	0.26398	-0.017395	-0.051727	0.34943	-0.17716	-0.006714	0.14175	-0.11536	0.023956	-0.028229	1.2421	-0.064087	-0.005493	0.01297	-0.074615	-0.50354	-1.1969	0.13367	-0.082397	0.14175	0.48553	0.092926	0.014496	-0.006256	0.29953	0.1329	0.001068	-0.072784	-0.000458	-0.020905
